<?xml version="1.0" encoding="utf-8"?>
<!-- Generator: Adobe Illustrator 24.0.1, SVG Export Plug-In . SVG Version: 6.00 Build 0)  -->
<svg version="1.1" id="Layer_1" xmlns="http://www.w3.org/2000/svg" xmlns:xlink="http://www.w3.org/1999/xlink" x="0px" y="0px"
	 viewBox="0 0 609.4 205.3" style="enable-background:new 0 0 609.4 205.3;" xml:space="preserve">
<style type="text/css">
	.st0{fill:none;}
	.st1{fill:#572C5F;}
</style>
<g>
	<rect class="st0" width="609.4" height="205.3"/>
	<path class="st1" d="M119,85.9c0,6.3-5.1,11.4-11.4,11.4s-11.4-5.1-11.4-11.4s5.1-11.4,11.4-11.4S119,79.6,119,85.9z M93.4,75.8
		H75.8v53.7h17.7L93.4,75.8L93.4,75.8z M362.2,53.7h-17.7v75.8h17.7V53.7z M235.5,102.5c0,15.4-12.5,27.9-27.9,27.9
		s-27.9-12.5-27.9-27.9s12.5-27.9,27.9-27.9S235.5,87,235.5,102.5z M219.4,102.5c0-6.6-5.3-11.9-11.9-11.9s-11.9,5.3-11.9,11.9
		s5.3,11.9,11.9,11.9S219.4,109,219.4,102.5z M175.7,102.5c0,15.4-12.5,27.9-27.9,27.9s-27.9-12.5-27.9-27.9s12.5-27.9,27.9-27.9
		S175.7,87,175.7,102.5z M159.7,102.5c0-6.6-5.3-11.9-11.9-11.9s-11.9,5.3-11.9,11.9s5.3,11.9,11.9,11.9S159.7,109,159.7,102.5z
		 M522.2,107.5c-6.3,0-11.4,5.1-11.4,11.4s5.1,11.4,11.4,11.4s11.4-5.1,11.4-11.4S528.5,107.5,522.2,107.5z M523.5,75.8h-19.7
		L490,106.2l-14.5-30.4h-19.7l24.3,48.2l-14.6,29H485L523.5,75.8z M404.4,75.8h-20.7l-19.4,26.9l19.4,26.9h20.7l-20.6-26.9
		L404.4,75.8z M319.3,101.7v27.8h16.9v-27c0-15.4-12.5-27.9-27.9-27.9c-7.6,0-14.5,3-19.5,8c-5-4.9-11.9-8-19.5-8
		c-15.4,0-27.9,12.5-27.9,27.9v27h16.9v-27.8c0-6.1,5-11.1,11.1-11.1s11.1,5,11.1,11.1v27.8h16.9v-27.8c0-6.1,5-11.1,11.1-11.1
		S319.3,95.5,319.3,101.7z M457.4,106.9h-39.6c0.9,6.9,8.4,10.1,13.7,10.1c6.1,0,11.6-1.3,16.6-6.2l7.8,10.3
		c-3.9,3.3-10.7,9.3-25,9.3c-13.5-0.1-28.7-9.7-28.7-28.1c0-16.2,13.7-27.8,27.4-27.8c8.4,0,15.1,3.1,19.9,7.9s8.1,11.2,8.1,19.5
		C457.7,103.5,457.4,106.9,457.4,106.9z M442.5,95.9c-0.6-4.3-4.6-8.5-12.7-8.5c-6.9,0-11.2,4.2-12,8.5H442.5z M336.2,102.5
		c0-15.4-12.5-28-28-28c-7.6,0-14.5,3-19.5,8c-5-4.9-11.9-8-19.5-8c-15.4,0-28,12.5-28,28v27h16.9v-27.8c0-6.1,5-11.1,11.1-11.1
		s11.1,5,11.1,11.1v27.8h16.9v-27.8c0-6.1,5-11.1,11.1-11.1s11.1,5,11.1,11.1v27.8h16.9v-27H336.2z"/>
</g>
</svg>
